<?xml version="1.0" encoding="UTF-8" standalone="no"?><svg xmlns="http://www.w3.org/2000/svg" xmlns:xlink="http://www.w3.org/1999/xlink" contentScriptType="text/ecmascript" fill="#000000" width="873" zoomAndPan="magnify" contentStyleType="text/css" viewBox="0.0 0.0 872.5 892.5" height="893" preserveAspectRatio="xMidYMid meet" version="1"><defs><linearGradient x1="680.33" y1="828.54" x2="192.81" gradientUnits="userSpaceOnUse" y2="77.83" xlink:type="simple" xlink:actuate="onLoad" id="a" xlink:show="other"><stop stop-color="#153dbf" offset="0"/><stop stop-color="#4c76ff" offset="0.13"/><stop stop-color="#0094e8" offset="0.52"/><stop stop-color="#00baf9" offset="0.82"/><stop stop-color="#00c6fb" offset="0.99"/></linearGradient></defs><path fill="url(#a)" d="M436.33,422.6l-15.16,24.27h30.33s-15.16-24.27-15.16-24.27ZM413.31,445.27l-15.04,24.08h30.09s-15.04-24.08-15.04-24.08ZM458.91,445.49l-15.05,24.08h30.09s-15.05-24.08-15.05-24.08ZM436.1,468.41l-14.91,23.86h29.82s-14.91-23.86-14.91-23.86ZM459.15,400.18l-14.71,23.55h29.42s-14.71-23.55-14.71-23.55ZM413.55,399.91l-14.71,23.55h29.42s-14.71-23.55-14.71-23.55ZM481.92,423.01l-14.64,23.43h29.28s-14.64-23.43-14.64-23.43ZM390.72,422.8l-14.64,23.44h29.28s-14.64-23.44-14.64-23.44ZM390.47,468.46l-14.5,23.22h29.01s-14.5-23.22-14.5-23.22ZM481.67,468.76l-14.51,23.22h29.01s-14.51-23.22-14.51-23.22ZM413.3,491.33l-14.46,23.15h28.93s-14.46-23.15-14.46-23.15ZM458.9,491.55l-14.46,23.15h28.93s-14.46-23.15-14.46-23.15ZM436.34,377.61l-14.41,23.06h28.82s-14.41-23.06-14.41-23.06ZM504.48,446.14l-14.25,22.81h28.5s-14.25-22.81-14.25-22.81ZM367.69,445.88l-14.25,22.81h28.51s-14.25-22.81-14.25-22.81ZM481.93,377.8l-14.15,22.66h28.31s-14.15-22.66-14.15-22.66ZM390.73,377.58l-14.15,22.66h28.31s-14.15-22.66-14.15-22.66ZM436.09,514.64l-14.13,22.62h28.26s-14.13-22.62-14.13-22.62ZM367.93,400.42l-14.1,22.57h28.2s-14.1-22.57-14.1-22.57ZM504.73,400.64l-14.1,22.57h28.21s-14.1-22.57-14.1-22.57ZM413.53,354.94l-13.94,22.32h27.89s-13.94-22.32-13.94-22.32ZM459.14,355.17l-13.95,22.32h27.89s-13.95-22.32-13.95-22.32ZM504.5,491.98l-13.93,22.29h27.85s-13.93-22.29-13.93-22.29ZM367.7,491.76l-13.92,22.29h27.85s-13.92-22.29-13.92-22.29ZM390.48,514.58l-13.88,22.21h27.76s-13.88-22.21-13.88-22.21ZM481.68,514.85l-13.88,22.22h27.76s-13.88-22.22-13.88-22.22ZM345.11,423.44l-13.84,22.15h27.68s-13.84-22.15-13.84-22.15ZM527.51,423.64l-13.84,22.15h27.68s-13.84-22.15-13.84-22.15ZM527.31,469.33l-13.73,21.98h27.47s-13.73-21.98-13.73-21.98ZM344.91,469.12l-13.74,21.99h27.47s-13.74-21.99-13.74-21.99ZM458.89,537.8l-13.66,21.87h27.33s-13.66-21.87-13.66-21.87ZM413.29,537.56l-13.66,21.87h27.33s-13.66-21.87-13.66-21.87ZM436.35,332.7l-13.55,21.68h27.09s-13.55-21.68-13.55-21.68ZM367.9,355.3l-13.53,21.65h27.06s-13.53-21.65-13.53-21.65ZM504.71,355.47l-13.53,21.65h27.06s-13.53-21.65-13.53-21.65ZM345.16,378.07l-13.51,21.62h27.01s-13.51-21.62-13.51-21.62ZM527.56,378.35l-13.51,21.62h27.01s-13.51-21.62-13.51-21.62ZM322.34,446.57l-13.41,21.46h26.82s-13.41-21.46-13.41-21.46ZM550.09,446.81l-13.41,21.46h26.81s-13.41-21.46-13.41-21.46ZM390.74,332.59l-13.38,21.42h26.77s-13.38-21.42-13.38-21.42ZM481.93,332.83l-13.38,21.42h26.77s-13.38-21.42-13.38-21.42ZM527.32,515.26l-13.31,21.3h26.61s-13.31-21.3-13.31-21.3ZM344.92,515.07l-13.31,21.3h26.62s-13.31-21.3-13.31-21.3ZM504.47,538.13l-13.28,21.26h26.57s-13.28-21.26-13.28-21.26ZM367.67,537.85l-13.29,21.27h26.57s-13.29-21.27-13.29-21.27ZM322.36,401.04l-13.29,21.27h26.57s-13.29-21.27-13.29-21.27ZM550.36,401.33l-13.28,21.26h26.56s-13.28-21.26-13.28-21.26ZM436.1,560.95l-13.23,21.18h26.46s-13.23-21.18-13.23-21.18ZM322.08,492.35l-13.16,21.07h26.33s-13.16-21.07-13.16-21.07ZM550.08,492.62l-13.17,21.07h26.33s-13.17-21.07-13.17-21.07ZM481.67,561.1l-13.08,20.93h26.16s-13.08-20.93-13.08-20.93ZM390.47,560.8l-13.08,20.94h26.16s-13.08-20.94-13.08-20.94ZM459.11,310.24l-13.08,20.94h26.16s-13.08-20.94-13.08-20.94ZM413.5,310.08l-13.06,20.91h26.12s-13.06-20.91-13.06-20.91ZM299.53,424.15l-12.94,20.71h25.87s-12.94-20.71-12.94-20.71ZM573.14,424.38l-12.94,20.7h25.87s-12.94-20.7-12.94-20.7ZM527.52,333.21l-12.89,20.63h25.77s-12.89-20.63-12.89-20.63ZM345.12,333l-12.89,20.63h25.78s-12.89-20.63-12.89-20.63ZM572.9,470.02l-12.88,20.62h25.77s-12.88-20.62-12.88-20.62ZM299.31,469.79l-12.89,20.63h25.77s-12.89-20.63-12.89-20.63ZM550.36,356.06l-12.87,20.6h25.74s-12.87-20.6-12.87-20.6ZM322.35,355.78l-12.87,20.6h25.74s-12.87-20.6-12.87-20.6ZM504.75,310.54l-12.77,20.44h25.54s-12.77-20.44-12.77-20.44ZM367.95,310.26l-12.77,20.44h25.54s-12.77-20.44-12.77-20.44ZM413.29,583.91l-12.72,20.37h25.45s-12.72-20.37-12.72-20.37ZM458.89,584.16l-12.73,20.37h25.45s-12.73-20.37-12.73-20.37ZM299.54,378.75l-12.69,20.31h25.38s-12.69-20.31-12.69-20.31ZM573.13,378.99l-12.69,20.31h25.37s-12.69-20.31-12.69-20.31ZM527.29,561.43l-12.65,20.24h25.29s-12.65-20.24-12.65-20.24ZM344.88,561.16l-12.65,20.24h25.3s-12.65-20.24-12.65-20.24ZM550.1,538.6l-12.65,20.25h25.3s-12.65-20.25-12.65-20.25ZM436.35,287.83l-12.65,20.24h25.3s-12.65-20.24-12.65-20.24ZM322.11,538.39l-12.65,20.24h25.3s-12.65-20.24-12.65-20.24ZM299.28,515.67l-12.52,20.04h25.04s-12.52-20.04-12.52-20.04ZM572.88,515.93l-12.52,20.04h25.04s-12.52-20.04-12.52-20.04ZM390.73,287.7l-12.5,20.01h25s-12.5-20.01-12.5-20.01ZM481.93,287.92l-12.5,20.01h25s-12.5-20.01-12.5-20.01ZM595.69,447.55l-12.49,20h24.99s-12.49-20-12.49-20ZM276.74,447.3l-12.49,20h24.99s-12.49-20-12.49-20ZM367.7,584.12l-12.46,19.95h24.93s-12.46-19.95-12.46-19.95ZM504.5,584.36l-12.47,19.96h24.94s-12.47-19.96-12.47-19.96ZM276.75,401.81l-12.35,19.76h24.7s-12.35-19.76-12.35-19.76ZM595.95,402.07l-12.35,19.77h24.7s-12.35-19.77-12.35-19.77ZM436.12,607.09l-12.29,19.67h24.58s-12.29-19.67-12.29-19.67ZM276.48,493.06l-12.28,19.65h24.56s-12.28-19.65-12.28-19.65ZM595.68,493.32l-12.28,19.65h24.56s-12.28-19.65-12.28-19.65ZM550.35,310.97l-12.22,19.56h24.44s-12.22-19.56-12.22-19.56ZM322.35,310.7l-12.22,19.56h24.43s-12.22-19.56-12.22-19.56ZM573.15,333.8l-12.18,19.49h24.36s-12.18-19.49-12.18-19.49ZM299.55,333.53l-12.18,19.49h24.36s-12.18-19.49-12.18-19.49ZM390.48,607.13l-12.18,19.49h24.35s-12.18-19.49-12.18-19.49ZM481.68,607.43l-12.16,19.46h24.31s-12.16-19.46-12.16-19.46ZM413.52,265.22l-12.12,19.39h24.23s-12.12-19.39-12.12-19.39ZM459.12,265.42l-12.12,19.4h24.24s-12.12-19.4-12.12-19.4ZM345.15,288l-12.11,19.38h24.21s-12.11-19.38-12.11-19.38ZM527.55,288.26l-12.1,19.38h24.21s-12.1-19.38-12.1-19.38ZM276.73,356.46l-12.04,19.27h24.08s-12.04-19.27-12.04-19.27ZM595.93,356.69l-12.04,19.28h24.08s-12.04-19.28-12.04-19.28ZM618.74,425.17l-11.95,19.13h23.91s-11.95-19.13-11.95-19.13ZM572.89,561.97l-11.96,19.14h23.91s-11.96-19.14-11.96-19.14ZM299.3,561.73l-11.96,19.14h23.91s-11.96-19.14-11.96-19.14ZM253.94,424.93l-11.95,19.13h23.9s-11.95-19.13-11.95-19.13ZM550.09,584.78l-11.94,19.11h23.88s-11.94-19.11-11.94-19.11ZM322.09,584.54l-11.94,19.11h23.88s-11.94-19.11-11.94-19.11ZM253.69,470.58l-11.89,19.03h23.78s-11.89-19.03-11.89-19.03ZM618.49,470.82l-11.89,19.03h23.78s-11.89-19.03-11.89-19.03ZM504.77,265.68l-11.85,18.96h23.7s-11.85-18.96-11.85-18.96ZM276.46,539l-11.83,18.93h23.66s-11.83-18.93-11.83-18.93ZM367.97,265.4l-11.83,18.93h23.66s-11.83-18.93-11.83-18.93ZM595.66,539.3l-11.83,18.94h23.66s-11.83-18.94-11.83-18.94ZM527.31,607.68l-11.8,18.89h23.6s-11.8-18.89-11.8-18.89ZM344.91,607.47l-11.8,18.88h23.59s-11.8-18.88-11.8-18.88ZM458.89,630.54l-11.75,18.8h23.49s-11.75-18.8-11.75-18.8ZM413.29,630.29l-11.75,18.8h23.49s-11.75-18.8-11.75-18.8ZM253.93,379.5l-11.75,18.8h23.49s-11.75-18.8-11.75-18.8ZM618.74,379.75l-11.74,18.79h23.48s-11.74-18.79-11.74-18.79ZM253.68,516.38l-11.61,18.59h23.22s-11.61-18.59-11.61-18.59ZM436.35,243.07l-11.61,18.58h23.22s-11.61-18.58-11.61-18.58ZM618.47,516.66l-11.61,18.58h23.21s-11.61-18.58-11.61-18.58ZM504.51,630.71l-11.51,18.43h23.03s-11.51-18.43-11.51-18.43ZM367.71,630.5l-11.51,18.43h23.03s-11.51-18.43-11.51-18.43ZM390.75,242.87l-11.51,18.43h23.03s-11.51-18.43-11.51-18.43ZM481.95,243.14l-11.51,18.43h23.03s-11.51-18.43-11.51-18.43ZM573.15,288.75l-11.5,18.41h23s-11.5-18.41-11.5-18.41ZM299.55,288.48l-11.5,18.4h23s-11.5-18.4-11.5-18.4ZM595.97,311.59l-11.46,18.34h22.92s-11.46-18.34-11.46-18.34ZM276.77,311.3l-11.46,18.34h22.92s-11.46-18.34-11.46-18.34ZM231.17,448.1l-11.46,18.34h22.92s-11.46-18.34-11.46-18.34ZM641.27,448.39l-11.46,18.34h22.92s-11.46-18.34-11.46-18.34ZM641.57,402.85l-11.38,18.22h22.76s-11.38-18.22-11.38-18.22ZM550.37,266.05l-11.38,18.22h22.76s-11.38-18.22-11.38-18.22ZM322.36,265.75l-11.38,18.22h22.76s-11.38-18.22-11.38-18.22ZM231.16,402.55l-11.38,18.22h22.76s-11.38-18.22-11.38-18.22ZM618.72,334.45l-11.34,18.15h22.68s-11.34-18.15-11.34-18.15ZM253.92,334.23l-11.34,18.15h22.68s-11.34-18.15-11.34-18.15ZM641.28,494.1l-11.3,18.08h22.6s-11.3-18.08-11.3-18.08ZM230.89,493.84l-11.3,18.09h22.61s-11.3-18.09-11.3-18.09ZM436.1,653.47l-11.3,18.09h22.6s-11.3-18.09-11.3-18.09ZM595.7,585.35l-11.23,17.97h22.45s-11.23-17.97-11.23-17.97ZM276.5,585.12l-11.22,17.96h22.45s-11.22-17.96-11.22-17.96ZM299.29,607.96l-11.16,17.87h22.33s-11.16-17.87-11.16-17.87ZM572.89,608.21l-11.16,17.87h22.33s-11.16-17.87-11.16-17.87ZM345.14,243.17l-11.15,17.85h22.3s-11.15-17.85-11.15-17.85ZM527.54,243.43l-11.15,17.84h22.29s-11.15-17.84-11.15-17.84ZM481.69,653.83l-11.15,17.84h22.3s-11.15-17.84-11.15-17.84ZM390.49,653.56l-11.15,17.84h22.29s-11.15-17.84-11.15-17.84ZM618.47,562.68l-11.11,17.78h22.22s-11.11-17.78-11.11-17.78ZM413.51,220.62l-11.1,17.77h22.21s-11.1-17.77-11.1-17.77ZM253.66,562.38l-11.11,17.78h22.22s-11.11-17.78-11.11-17.78ZM459.11,220.62l-11.1,17.77h22.21s-11.1-17.77-11.1-17.77ZM322.11,630.86l-11.07,17.72h22.15s-11.07-17.72-11.07-17.72ZM231.12,357.25l-11.07,17.72h22.15s-11.07-17.72-11.07-17.72ZM641.52,357.46l-11.07,17.72h22.15s-11.07-17.72-11.07-17.72ZM550.1,631.07l-11.06,17.71h22.13s-11.06-17.71-11.06-17.71ZM230.87,539.74l-10.93,17.49h21.86s-10.93-17.49-10.93-17.49ZM641.27,540.01l-10.93,17.49h21.86s-10.93-17.49-10.93-17.49ZM664.1,426.02l-10.87,17.39h21.74s-10.87-17.39-10.87-17.39ZM208.33,425.82l-10.87,17.4h21.74s-10.87-17.4-10.87-17.4ZM208.11,471.43l-10.86,17.38h21.71s-10.86-17.38-10.86-17.38ZM367.95,220.59l-10.86,17.38h21.71s-10.86-17.38-10.86-17.38ZM504.75,220.87l-10.86,17.38h21.71s-10.86-17.38-10.86-17.38ZM664.11,471.63l-10.86,17.38h21.71s-10.86-17.38-10.86-17.38ZM344.89,653.84l-10.82,17.32h21.64s-10.82-17.32-10.82-17.32ZM527.29,654.07l-10.83,17.33h21.65s-10.83-17.33-10.83-17.33ZM208.37,380.31l-10.68,17.1h21.37s-10.68-17.1-10.68-17.1ZM253.97,289.11l-10.68,17.1h21.37s-10.68-17.1-10.68-17.1ZM664.37,380.62l-10.68,17.1h21.36s-10.68-17.1-10.68-17.1ZM276.7,266.38l-10.68,17.1h21.36s-10.68-17.1-10.68-17.1ZM618.77,289.42l-10.68,17.1h21.36s-10.68-17.1-10.68-17.1ZM595.9,266.55l-10.68,17.1h21.37s-10.68-17.1-10.68-17.1ZM413.33,676.78l-10.68,17.1h21.36s-10.68-17.1-10.68-17.1ZM458.92,676.98l-10.65,17.05h21.31s-10.65-17.05-10.65-17.05ZM573.15,243.84l-10.62,17h21.24s-10.62-17-10.62-17ZM299.54,243.59l-10.62,16.99h21.23s-10.62-16.99-10.62-16.99ZM664.09,517.47l-10.6,16.96h21.19s-10.6-16.96-10.6-16.96ZM641.53,312.27l-10.58,16.94h21.17s-10.58-16.94-10.58-16.94ZM231.13,312.03l-10.58,16.93h21.16s-10.58-16.93-10.58-16.93ZM208.09,517.23l-10.58,16.94h21.17s-10.58-16.94-10.58-16.94ZM436.34,198.28l-10.57,16.91h21.13s-10.57-16.91-10.57-16.91ZM390.73,198.15l-10.43,16.7h20.87s-10.43-16.7-10.43-16.7ZM504.49,677.19l-10.43,16.7h20.87s-10.43-16.7-10.43-16.7ZM367.69,676.94l-10.44,16.7h20.87s-10.44-16.7-10.44-16.7ZM481.93,198.38l-10.44,16.7h20.87s-10.44-16.7-10.44-16.7ZM276.48,631.36l-10.41,16.66h20.81s-10.41-16.66-10.41-16.66ZM253.71,608.58l-10.41,16.65h20.81s-10.41-16.65-10.41-16.65ZM322.35,220.96l-10.4,16.65h20.8s-10.4-16.65-10.4-16.65ZM595.68,631.62l-10.4,16.65h20.81s-10.4-16.65-10.4-16.65ZM550.35,221.23l-10.4,16.65h20.8s-10.4-16.65-10.4-16.65ZM618.51,608.8l-10.41,16.66h20.81s-10.41-16.66-10.41-16.66ZM208.32,335.05l-10.33,16.53h20.65s-10.33-16.53-10.33-16.53ZM686.88,449.29l-10.33,16.53h20.65s-10.33-16.53-10.33-16.53ZM185.55,449.01l-10.33,16.53h20.65s-10.33-16.53-10.33-16.53ZM664.32,335.26l-10.32,16.52h20.65s-10.32-16.52-10.32-16.52ZM230.88,585.82l-10.32,16.52h20.65s-10.32-16.52-10.32-16.52ZM641.28,586.09l-10.33,16.53h20.65s-10.33-16.53-10.33-16.53ZM687.14,403.73l-10.26,16.43h20.53s-10.26-16.43-10.26-16.43ZM185.54,403.47l-10.27,16.43h20.53s-10.27-16.43-10.27-16.43ZM572.9,654.51l-10.27,16.43h20.53s-10.27-16.43-10.27-16.43ZM299.3,654.29l-10.26,16.43h20.53s-10.26-16.43-10.26-16.43ZM686.92,494.95l-10.21,16.34h20.41s-10.21-16.34-10.21-16.34ZM185.32,494.75l-10.2,16.33h20.41s-10.2-16.33-10.2-16.33ZM345.15,198.37l-10.14,16.23h20.28s-10.14-16.23-10.14-16.23ZM208.08,563.17l-10.14,16.22h20.27s-10.14-16.22-10.14-16.22ZM527.55,198.64l-10.14,16.23h20.28s-10.14-16.23-10.14-16.23ZM664.08,563.44l-10.14,16.23h20.27s-10.14-16.23-10.14-16.23ZM436.08,699.97l-10.14,16.22h20.27s-10.14-16.22-10.14-16.22ZM550.12,677.47l-10.05,16.09h20.1s-10.05-16.09-10.05-16.09ZM322.12,677.28l-10.05,16.09h20.1s-10.05-16.09-10.05-16.09ZM185.53,358.1l-10.01,16.02h20.02s-10.01-16.02-10.01-16.02ZM687.13,358.31l-10.01,16.02h20.02s-10.01-16.02-10.01-16.02ZM481.69,700.34l-10.01,16.02h20.02s-10.01-16.02-10.01-16.02ZM390.49,700.07l-10.01,16.02h20.02s-10.01-16.02-10.01-16.02ZM459.17,176.03l-9.93,15.89h19.86s-9.93-15.89-9.93-15.89ZM413.57,176.03l-9.93,15.89h19.86s-9.93-15.89-9.93-15.89ZM618.72,244.42l-9.88,15.82h19.76s-9.88-15.82-9.88-15.82ZM231.14,266.98l-9.88,15.81h19.75s-9.88-15.81-9.88-15.81ZM253.92,244.2l-9.89,15.82h19.77s-9.89-15.82-9.89-15.82ZM641.54,267.26l-9.84,15.75h19.68s-9.84-15.75-9.84-15.75ZM686.89,540.89l-9.81,15.71h19.63s-9.81-15.71-9.81-15.71ZM185.29,540.64l-9.82,15.71h19.63s-9.82-15.71-9.82-15.71ZM276.72,221.47l-9.79,15.67h19.58s-9.79-15.67-9.79-15.67ZM595.92,221.69l-9.79,15.66h19.57s-9.79-15.66-9.79-15.66ZM208.35,289.88l-9.76,15.62h19.51s-9.76-15.62-9.76-15.62ZM664.35,290.14l-9.76,15.61h19.51s-9.76-15.61-9.76-15.61ZM709.68,426.94l-9.76,15.62h19.51s-9.76-15.62-9.76-15.62ZM162.75,426.68l-9.76,15.62h19.51s-9.76-15.62-9.76-15.62ZM344.88,700.31l-9.7,15.53h19.41s-9.7-15.53-9.7-15.53ZM504.72,176.15l-9.7,15.53h19.41s-9.7-15.53-9.7-15.53ZM367.92,175.95l-9.7,15.53h19.4s-9.7-15.53-9.7-15.53ZM709.7,472.59l-9.68,15.49h19.35s-9.68-15.49-9.68-15.49ZM527.3,700.59l-9.68,15.49h19.35s-9.68-15.49-9.68-15.49ZM162.49,472.35l-9.67,15.48h19.35s-9.67-15.48-9.67-15.48ZM573.15,199.07l-9.61,15.38h19.22s-9.61-15.38-9.61-15.38ZM299.55,198.79l-9.61,15.38h19.22s-9.61-15.38-9.61-15.38ZM641.28,632.3l-9.56,15.3h19.11s-9.56-15.3-9.56-15.3ZM162.72,381.26l-9.56,15.3h19.11s-9.56-15.3-9.56-15.3ZM253.7,654.85l-9.56,15.3h19.12s-9.56-15.3-9.56-15.3ZM618.5,655.08l-9.56,15.3h19.12s-9.56-15.3-9.56-15.3ZM709.92,381.48l-9.56,15.29h19.11s-9.56-15.29-9.56-15.29ZM230.88,632.04l-9.56,15.29h19.11s-9.56-15.29-9.56-15.29ZM185.55,312.88l-9.5,15.2h18.99s-9.5-15.2-9.5-15.2ZM687.15,313.19l-9.46,15.14h18.91s-9.46-15.14-9.46-15.14ZM458.87,723.59l-9.46,15.14h18.91s-9.46-15.14-9.46-15.14ZM664.12,609.53l-9.47,15.15h18.93s-9.47-15.15-9.47-15.15ZM413.27,723.31l-9.46,15.14h18.92s-9.46-15.14-9.46-15.14ZM208.12,609.34l-9.47,15.15h18.93s-9.47-15.15-9.47-15.15ZM709.73,518.34l-9.45,15.12h18.9s-9.45-15.12-9.45-15.12ZM162.53,518.17l-9.45,15.12h18.89s-9.45-15.12-9.45-15.12ZM276.47,677.73l-9.43,15.09h18.86s-9.43-15.09-9.43-15.09ZM595.67,678.02l-9.42,15.08h18.85s-9.42-15.08-9.42-15.08ZM436.34,153.67l-9.33,14.94h18.67s-9.33-14.94-9.33-14.94ZM322.35,176.23l-9.3,14.88h18.6s-9.3-14.88-9.3-14.88ZM550.36,176.52l-9.3,14.88h18.6s-9.3-14.88-9.3-14.88ZM504.47,723.73l-9.28,14.85h18.56s-9.28-14.85-9.28-14.85ZM367.67,723.45l-9.28,14.85h18.56s-9.28-14.85-9.28-14.85ZM686.87,586.93l-9.28,14.85h18.56s-9.28-14.85-9.28-14.85ZM185.27,586.65l-9.28,14.85h18.56s-9.28-14.85-9.28-14.85ZM390.75,153.5l-9.21,14.74h18.42s-9.21-14.74-9.21-14.74ZM572.87,700.98l-9.21,14.75h18.43s-9.21-14.75-9.21-14.75ZM299.27,700.7l-9.21,14.75h18.43s-9.21-14.75-9.21-14.75ZM481.96,153.78l-9.21,14.74h18.42s-9.21-14.74-9.21-14.74ZM162.74,335.97l-9.15,14.65h18.3s-9.15-14.65-9.15-14.65ZM709.94,336.22l-9.15,14.65h18.3s-9.15-14.65-9.15-14.65ZM732.51,450.23l-9.1,14.56h18.19s-9.1-14.56-9.1-14.56ZM139.92,450.04l-9.09,14.56h18.19s-9.09-14.56-9.09-14.56ZM139.95,404.46l-9.02,14.44h18.05s-9.02-14.44-9.02-14.44ZM162.54,564.2l-8.95,14.33h17.9s-8.95-14.33-8.95-14.33ZM732.78,404.84l-8.95,14.33h17.9s-8.95-14.33-8.95-14.33ZM709.75,564.31l-8.96,14.34h17.92s-8.96-14.34-8.96-14.34ZM732.46,496.03l-8.93,14.29h17.86s-8.93-14.29-8.93-14.29ZM208.29,245.01l-8.93,14.29h17.86s-8.93-14.29-8.93-14.29ZM664.31,245.17l-8.92,14.28h17.84s-8.92-14.28-8.92-14.28ZM641.57,222.44l-8.93,14.29h17.86s-8.93-14.29-8.93-14.29ZM139.67,495.73l-8.92,14.28h17.84s-8.92-14.28-8.92-14.28ZM231.18,222.12l-8.93,14.29h17.85s-8.93-14.29-8.93-14.29ZM345.09,153.81l-8.93,14.29h17.86s-8.93-14.29-8.93-14.29ZM527.51,153.97l-8.92,14.28h17.84s-8.92-14.28-8.92-14.28ZM253.9,199.44l-8.88,14.22h17.77s-8.88-14.22-8.88-14.22ZM618.72,199.57l-8.86,14.18h17.72s-8.86-14.18-8.86-14.18ZM436.13,746.63l-8.88,14.21h17.75s-8.88-14.21-8.88-14.21ZM550.08,724.07l-8.85,14.17h17.71s-8.85-14.17-8.85-14.17ZM322.07,723.79l-8.87,14.2h17.74s-8.87-14.2-8.87-14.2ZM687.14,268.14l-8.8,14.08h17.6s-8.8-14.08-8.8-14.08ZM185.53,267.85l-8.79,14.06h17.57s-8.79-14.06-8.79-14.06ZM139.83,359.24l-8.72,13.96h17.45s-8.72-13.96-8.72-13.96ZM481.7,746.98l-8.71,13.94h17.42s-8.71-13.94-8.71-13.94ZM390.5,746.74l-8.71,13.94h17.41s-8.71-13.94-8.71-13.94ZM732.74,359.38l-8.71,13.94h17.41s-8.71-13.94-8.71-13.94ZM276.7,176.78l-8.7,13.93h17.41s-8.7-13.93-8.7-13.93ZM595.9,176.94l-8.7,13.92h17.39s-8.7-13.92-8.7-13.92ZM208.08,655.58l-8.62,13.8h17.25s-8.62-13.8-8.62-13.8ZM459.12,131.42l-8.62,13.8h17.25s-8.62-13.8-8.62-13.8ZM413.52,131.42l-8.62,13.8h17.25s-8.62-13.8-8.62-13.8ZM732.5,541.83l-8.61,13.79h17.23s-8.61-13.79-8.61-13.79ZM664.08,655.85l-8.63,13.81h17.26s-8.63-13.81-8.63-13.81ZM162.74,290.82l-8.59,13.74h17.17s-8.59-13.74-8.59-13.74ZM139.7,541.64l-8.58,13.74h17.16s-8.58-13.74-8.58-13.74ZM709.94,291.08l-8.58,13.74h17.16s-8.58-13.74-8.58-13.74ZM641.3,678.66l-8.59,13.74h17.17s-8.59-13.74-8.59-13.74ZM230.9,678.44l-8.58,13.74h17.16s-8.58-13.74-8.58-13.74ZM686.89,633.13l-8.53,13.66h17.07s-8.53-13.66-8.53-13.66ZM185.29,632.9l-8.5,13.6h16.99s-8.5-13.6-8.5-13.6ZM618.53,701.53l-8.47,13.55h16.93s-8.47-13.55-8.47-13.55ZM253.74,701.39l-8.45,13.53h16.9s-8.45-13.53-8.45-13.53ZM344.91,746.98l-8.42,13.47h16.84s-8.42-13.47-8.42-13.47ZM527.31,747.19l-8.42,13.48h16.84s-8.42-13.48-8.42-13.48ZM573.1,154.4l-8.4,13.44h16.8s-8.4-13.44-8.4-13.44ZM755.31,428l-8.41,13.46h16.81s-8.41-13.46-8.41-13.46ZM367.95,131.36l-8.41,13.46h16.81s-8.41-13.46-8.41-13.46ZM504.74,131.62l-8.4,13.45h16.81s-8.4-13.45-8.4-13.45ZM117.12,427.81l-8.4,13.44h16.79s-8.4-13.44-8.4-13.44ZM299.52,154.21l-8.4,13.44h16.79s-8.4-13.44-8.4-13.44ZM755.31,473.62l-8.36,13.38h16.72s-8.36-13.38-8.36-13.38ZM116.9,473.47l-8.28,13.26h16.57s-8.28-13.26-8.28-13.26ZM162.51,610.23l-8.34,13.35h16.68s-8.34-13.35-8.34-13.35ZM709.7,610.48l-8.34,13.35h16.68s-8.34-13.35-8.34-13.35ZM139.91,313.89l-8.28,13.25h16.56s-8.28-13.25-8.28-13.25ZM732.71,314.1l-8.28,13.25h16.55s-8.28-13.25-8.28-13.25ZM595.73,724.52l-8.21,13.14h16.42s-8.21-13.14-8.21-13.14ZM276.56,724.39l-8.21,13.14h16.41s-8.21-13.14-8.21-13.14ZM755.56,382.63l-8.18,13.1h16.37s-8.18-13.1-8.18-13.1ZM117.16,382.33l-8.19,13.1h16.37s-8.19-13.1-8.19-13.1ZM755.27,519.44l-8.15,13.05h16.3s-8.15-13.05-8.15-13.05ZM413.3,770l-8.12,13h16.25s-8.12-13-8.12-13ZM116.89,519.24l-8.09,12.95h16.19s-8.09-12.95-8.09-12.95ZM458.9,770.3l-8.05,12.88h16.1s-8.05-12.88-8.05-12.88ZM732.47,588.01l-8,12.81h16s-8-12.81-8-12.81ZM139.65,587.63l-8.03,12.86h16.06s-8.03-12.86-8.03-12.86ZM550.39,132.01l-7.96,12.75h15.93s-7.96-12.75-7.96-12.75ZM322.39,131.67l-7.95,12.73h15.9s-7.95-12.73-7.95-12.73ZM208.32,200.17l-7.96,12.75h15.93s-7.96-12.75-7.96-12.75ZM664.31,200.36l-7.96,12.74h15.92s-7.96-12.74-7.96-12.74ZM436.33,109.18l-7.93,12.69h15.86s-7.93-12.69-7.93-12.69ZM687.14,223.21l-7.93,12.69h15.86s-7.93-12.69-7.93-12.69ZM185.55,222.96l-7.92,12.68h15.84s-7.92-12.68-7.92-12.68ZM299.3,747.37l-7.93,12.69h15.86s-7.93-12.69-7.93-12.69ZM572.91,747.6l-7.92,12.68h15.84s-7.92-12.68-7.92-12.68ZM504.47,770.45l-7.89,12.63h15.78s-7.89-12.63-7.89-12.63ZM367.67,770.16l-7.89,12.62h15.77s-7.89-12.62-7.89-12.62ZM641.53,177.69l-7.81,12.51h15.63s-7.81-12.51-7.81-12.51ZM231.13,177.45l-7.81,12.5h15.63s-7.81-12.5-7.81-12.5ZM755.53,337.29l-7.82,12.52h15.64s-7.82-12.52-7.82-12.52ZM117.12,337.03l-7.84,12.55h15.68s-7.84-12.55-7.84-12.55ZM390.76,109.01l-7.79,12.47h15.58s-7.79-12.47-7.79-12.47ZM481.96,109.37l-7.78,12.45h15.55s-7.78-12.45-7.78-12.45ZM162.76,245.81l-7.79,12.47h15.58s-7.79-12.47-7.79-12.47ZM709.96,246.17l-7.78,12.45h15.55s-7.78-12.45-7.78-12.45ZM618.77,155.03l-7.66,12.27h15.33s-7.66-12.27-7.66-12.27ZM253.96,154.74l-7.66,12.26h15.32s-7.66-12.26-7.66-12.26ZM116.85,565.12l-7.68,12.3h15.37s-7.68-12.3-7.68-12.3ZM94.3,451.19l-7.67,12.28h15.35s-7.67-12.28-7.67-12.28ZM755.26,565.43l-7.67,12.28h15.35s-7.67-12.28-7.67-12.28ZM778.12,451.37l-7.68,12.29h15.36s-7.68-12.29-7.68-12.29ZM139.96,268.81l-7.59,12.15h15.18s-7.59-12.15-7.59-12.15ZM732.77,269.1l-7.59,12.15h15.18s-7.59-12.15-7.59-12.15ZM185.28,679.27l-7.53,12.05h15.06s-7.53-12.05-7.53-12.05ZM208.11,702.11l-7.52,12.04h15.05s-7.52-12.04-7.52-12.04ZM778.35,405.95l-7.52,12.04h15.05s-7.52-12.04-7.52-12.04ZM664.11,702.3l-7.54,12.06h15.07s-7.54-12.06-7.54-12.06ZM94.35,405.66l-7.54,12.06h15.07s-7.54-12.06-7.54-12.06ZM686.88,679.55l-7.52,12.03h15.03s-7.52-12.03-7.52-12.03ZM527.52,109.53l-7.49,11.98h14.98s-7.49-11.98-7.49-11.98ZM778.02,497.24l-7.47,11.96h14.95s-7.47-11.96-7.47-11.96ZM345.06,109.4l-7.47,11.96h14.95s-7.47-11.96-7.47-11.96ZM550.05,770.82l-7.45,11.93h14.91s-7.45-11.93-7.45-11.93ZM322.05,770.48l-7.46,11.93h14.91s-7.46-11.93-7.46-11.93ZM709.73,656.73l-7.45,11.93h14.9s-7.45-11.93-7.45-11.93ZM162.53,656.57l-7.45,11.93h14.9s-7.45-11.93-7.45-11.93ZM94.05,496.88l-7.46,11.93h14.91s-7.46-11.93-7.46-11.93ZM641.26,725.24l-7.43,11.9h14.87s-7.43-11.9-7.43-11.9ZM230.85,724.92l-7.43,11.89h14.86s-7.43-11.89-7.43-11.89ZM595.95,132.46l-7.36,11.79h14.73s-7.36-11.79-7.36-11.79ZM276.74,132.19l-7.36,11.78h14.72s-7.36-11.78-7.36-11.78ZM436.11,793.42l-7.36,11.79h14.73s-7.36-11.79-7.36-11.79ZM139.71,633.89l-7.28,11.66h14.57s-7.28-11.66-7.28-11.66ZM732.51,634.08l-7.28,11.66h14.57s-7.28-11.66-7.28-11.66ZM94.31,360.29l-7.28,11.65h14.56s-7.28-11.65-7.28-11.65ZM778.32,360.49l-7.29,11.66h14.57s-7.29-11.66-7.29-11.66ZM117.15,291.91l-7.22,11.55h14.44s-7.22-11.55-7.22-11.55ZM390.48,793.52l-7.22,11.56h14.44s-7.22-11.56-7.22-11.56ZM755.55,292.19l-7.23,11.57h14.46s-7.23-11.57-7.23-11.57ZM481.69,793.8l-7.21,11.55h14.43s-7.21-11.55-7.21-11.55ZM253.67,747.97l-7.16,11.46h14.32s-7.16-11.46-7.16-11.46ZM618.48,748.22l-7.17,11.48h14.35s-7.17-11.48-7.17-11.48ZM94.09,542.84l-7.08,11.33h14.15s-7.08-11.33-7.08-11.33ZM778.09,543.08l-7.08,11.33h14.15s-7.08-11.33-7.08-11.33ZM413.62,87.18l-7.05,11.29h14.1s-7.05-11.29-7.05-11.29ZM459.22,87.18l-7.05,11.29h14.1s-7.05-11.29-7.05-11.29ZM116.93,611.37l-6.97,11.15h13.94s-6.97-11.15-6.97-11.15ZM755.33,611.55l-6.95,11.13h13.9s-6.95-11.13-6.95-11.13ZM573.1,109.95l-6.95,11.13h13.91s-6.95-11.13-6.95-11.13ZM299.53,109.79l-6.89,11.03h13.78s-6.89-11.03-6.89-11.03ZM344.94,793.78l-6.93,11.09h13.85s-6.93-11.09-6.93-11.09ZM527.32,793.98l-6.92,11.07h13.84s-6.92-11.07-6.92-11.07ZM504.72,87.23l-6.87,11h13.74s-6.87-11-6.87-11ZM367.93,87.07l-6.79,10.88h13.59s-6.79-10.88-6.79-10.88ZM595.74,771.25l-6.79,10.87h13.58s-6.79-10.87-6.79-10.87ZM276.55,771.12l-6.78,10.85h13.56s-6.78-10.85-6.78-10.85ZM185.54,178.29l-6.78,10.86h13.56s-6.78-10.86-6.78-10.86ZM800.9,429.33l-6.78,10.86h13.56s-6.78-10.86-6.78-10.86ZM71.54,429.07l-6.79,10.87h13.58s-6.79-10.87-6.79-10.87ZM778.33,315.32l-6.79,10.86h13.58s-6.79-10.86-6.79-10.86ZM94.34,315.09l-6.78,10.86h13.56s-6.78-10.86-6.78-10.86ZM687.13,178.52l-6.79,10.86h13.58s-6.79-10.86-6.79-10.86ZM162.73,201.14l-6.7,10.73h13.4s-6.7-10.73-6.7-10.73ZM709.93,201.38l-6.7,10.72h13.4s-6.7-10.72-6.7-10.72ZM800.9,474.98l-6.7,10.72h13.4s-6.7-10.72-6.7-10.72ZM71.3,474.74l-6.7,10.73h13.41s-6.7-10.73-6.7-10.73ZM664.38,155.85l-6.68,10.68h13.35s-6.68-10.68-6.68-10.68ZM208.39,155.54l-6.66,10.66h13.32s-6.66-10.66-6.66-10.66ZM732.73,224.29l-6.59,10.55h13.18s-6.59-10.55-6.59-10.55ZM139.97,224.01l-6.61,10.58h13.22s-6.61-10.58-6.61-10.58ZM801.13,383.88l-6.57,10.51h13.13s-6.57-10.51-6.57-10.51ZM71.47,383.75l-6.52,10.44h13.04s-6.52-10.44-6.52-10.44ZM778.1,589.15l-6.5,10.41h13s-6.5-10.41-6.5-10.41ZM94.04,588.84l-6.52,10.44h13.05s-6.52-10.44-6.52-10.44ZM641.58,133.18l-6.5,10.41h13s-6.5-10.41-6.5-10.41ZM231.16,132.84l-6.51,10.42h13.02s-6.51-10.42-6.51-10.42ZM800.92,520.68l-6.51,10.42h13.02s-6.51-10.42-6.51-10.42ZM71.29,520.58l-6.4,10.25h12.8s-6.4-10.25-6.4-10.25ZM413.29,816.98l-6.4,10.25h12.8s-6.4-10.25-6.4-10.25ZM458.9,817.22l-6.4,10.25h12.8s-6.4-10.25-6.4-10.25ZM117.14,247.01l-6.37,10.19h12.73s-6.37-10.19-6.37-10.19ZM755.54,247.23l-6.36,10.19h12.73s-6.36-10.19-6.36-10.19ZM550.33,87.64l-6.37,10.2h12.74s-6.37-10.2-6.37-10.2ZM322.35,87.43l-6.34,10.15h12.68s-6.34-10.15-6.34-10.15ZM299.29,794.26l-6.31,10.09h12.61s-6.31-10.09-6.31-10.09ZM572.89,794.5l-6.3,10.09h12.61s-6.3-10.09-6.3-10.09ZM162.44,703.02l-6.28,10.06h12.57s-6.28-10.06-6.28-10.06ZM709.65,703.36l-6.28,10.06h12.57s-6.28-10.06-6.28-10.06ZM185.32,725.92l-6.27,10.03h12.53s-6.27-10.03-6.27-10.03ZM686.95,726.08l-6.28,10.06h12.57s-6.28-10.06-6.28-10.06ZM732.49,680.58l-6.2,9.92h12.4s-6.2-9.92-6.2-9.92ZM139.7,680.35l-6.19,9.92h12.39s-6.19-9.92-6.19-9.92ZM367.73,817.13l-6.23,9.97h12.45s-6.23-9.97-6.23-9.97ZM436.34,64.98l-6.18,9.9h12.37s-6.18-9.9-6.18-9.9ZM801.14,338.58l-6.18,9.9h12.37s-6.18-9.9-6.18-9.9ZM71.53,338.36l-6.17,9.88h12.34s-6.17-9.88-6.17-9.88ZM504.49,817.4l-6.17,9.88h12.34s-6.17-9.88-6.17-9.88ZM208.09,748.83l-6.09,9.75h12.18s-6.09-9.75-6.09-9.75ZM618.73,110.67l-6.09,9.75h12.19s-6.09-9.75-6.09-9.75ZM664.1,749.07l-6.09,9.75h12.19s-6.09-9.75-6.09-9.75ZM253.93,110.43l-6.09,9.74h12.18s-6.09-9.74-6.09-9.74ZM390.72,64.92l-6.02,9.63h12.04s-6.02-9.63-6.02-9.63ZM481.9,65.05l-6.05,9.68h12.1s-6.05-9.68-6.05-9.68ZM94.34,270.12l-5.98,9.58h11.97s-5.98-9.58-5.98-9.58ZM778.34,270.36l-5.98,9.58h11.96s-5.98-9.58-5.98-9.58ZM755.3,657.96l-5.98,9.58h11.97s-5.98-9.58-5.98-9.58ZM116.9,657.72l-5.98,9.58h11.96s-5.98-9.58-5.98-9.58ZM71.32,566.55l-5.96,9.55h11.93s-5.96-9.55-5.96-9.55ZM800.92,566.72l-5.96,9.54h11.93s-5.96-9.54-5.96-9.54ZM641.3,772.04l-5.88,9.4h11.75s-5.88-9.4-5.88-9.4ZM230.89,771.81l-5.87,9.4h11.75s-5.87-9.4-5.87-9.4ZM823.7,452.93l-5.76,9.23h11.53s-5.76-9.23-5.76-9.23ZM48.74,452.7l-5.76,9.22h11.52s-5.76-9.22-5.76-9.22ZM48.72,407.13l-5.74,9.19h11.49s-5.74-9.19-5.74-9.19ZM823.9,407.33l-5.74,9.19h11.49s-5.74-9.19-5.74-9.19ZM345.13,65.18l-5.65,9.04h11.3s-5.65-9.04-5.65-9.04ZM276.74,87.98l-5.65,9.04h11.3s-5.65-9.04-5.65-9.04ZM527.53,65.42l-5.65,9.04h11.3s-5.65-9.04-5.65-9.04ZM595.94,88.22l-5.65,9.04h11.3s-5.65-9.04-5.65-9.04ZM823.69,498.62l-5.65,9.04h11.3s-5.65-9.04-5.65-9.04ZM550.09,817.82l-5.65,9.04h11.3s-5.65-9.04-5.65-9.04ZM322.09,817.58l-5.65,9.04h11.3s-5.65-9.04-5.65-9.04ZM48.5,498.41l-5.61,8.97h11.21s-5.61-8.97-5.61-8.97ZM94.1,635.21l-5.61,8.97h11.21s-5.61-8.97-5.61-8.97ZM778.09,635.46l-5.61,8.98h11.22s-5.61-8.98-5.61-8.98ZM71.54,293.37l-5.41,8.67h10.83s-5.41-8.67-5.41-8.67ZM801.14,293.61l-5.41,8.66h10.83s-5.41-8.66-5.41-8.66ZM436.09,840.57l-5.42,8.67h10.83s-5.42-8.67-5.42-8.67ZM253.69,794.97l-5.42,8.67h10.83s-5.42-8.67-5.42-8.67ZM618.49,795.21l-5.41,8.67h10.83s-5.41-8.67-5.41-8.67ZM48.73,361.8l-5.37,8.6h10.74s-5.37-8.6-5.37-8.6ZM823.94,362.04l-5.37,8.6h10.75s-5.37-8.6-5.37-8.6ZM709.94,156.92l-5.29,8.47h10.59s-5.29-8.47-5.29-8.47ZM481.69,840.92l-5.29,8.47h10.59s-5.29-8.47-5.29-8.47ZM390.49,840.67l-5.29,8.47h10.58s-5.29-8.47-5.29-8.47ZM732.73,179.71l-5.29,8.47h10.58s-5.29-8.47-5.29-8.47ZM162.74,156.67l-5.29,8.47h10.59s-5.29-8.47-5.29-8.47ZM139.93,179.48l-5.29,8.47h10.59s-5.29-8.47-5.29-8.47ZM48.49,544.36l-5.17,8.27h10.33s-5.17-8.27-5.17-8.27ZM755.53,202.6l-5.17,8.27h10.33s-5.17-8.27-5.17-8.27ZM117.13,202.37l-5.17,8.27h10.33s-5.17-8.27-5.17-8.27ZM185.54,133.96l-5.17,8.27h10.33s-5.17-8.27-5.17-8.27ZM687.14,134.21l-5.17,8.27h10.33s-5.17-8.27-5.17-8.27ZM823.69,544.61l-5.17,8.27h10.33s-5.17-8.27-5.17-8.27ZM71.3,612.8l-5.13,8.21h10.26s-5.13-8.21-5.13-8.21ZM800.9,613.04l-5.13,8.21h10.25s-5.13-8.21-5.13-8.21ZM459.13,43.12l-5.04,8.06h10.07s-5.04-8.06-5.04-8.06ZM413.53,43.12l-5.04,8.06h10.07s-5.04-8.06-5.04-8.06ZM299.54,65.68l-5.03,8.06h10.07s-5.03-8.06-5.03-8.06ZM573.14,65.91l-5.04,8.07h10.08s-5.04-8.07-5.04-8.07ZM664.33,111.58l-4.95,7.93h9.91s-4.95-7.93-4.95-7.93ZM208.35,111.34l-4.93,7.89h9.85s-4.93-7.89-4.93-7.89ZM595.71,818.38l-4.93,7.89h9.85s-4.93-7.89-4.93-7.89ZM276.51,818.17l-4.92,7.88h9.84s-4.92-7.88-4.92-7.88ZM344.89,841.01l-4.86,7.79h9.73s-4.86-7.79-4.86-7.79ZM527.29,841.25l-4.86,7.79h9.73s-4.86-7.79-4.86-7.79ZM94.34,225.45l-4.82,7.72h9.64s-4.82-7.72-4.82-7.72ZM778.34,225.69l-4.82,7.72h9.64s-4.82-7.72-4.82-7.72ZM504.74,43.3l-4.79,7.66h9.57s-4.79-7.66-4.79-7.66ZM367.93,43.07l-4.78,7.66h9.57s-4.78-7.66-4.78-7.66ZM48.73,316.67l-4.78,7.65h9.57s-4.78-7.65-4.78-7.65ZM823.93,316.96l-4.73,7.57h9.46s-4.73-7.57-4.73-7.57ZM732.49,727.4l-4.69,7.5h9.37s-4.69-7.5-4.69-7.5ZM139.69,727.16l-4.68,7.5h9.37s-4.68-7.5-4.68-7.5ZM846.5,431.03l-4.64,7.42h9.27s-4.64-7.42-4.64-7.42ZM25.93,430.78l-4.64,7.43h9.28s-4.64-7.43-4.64-7.43ZM162.5,749.99l-4.64,7.42h9.28s-4.64-7.42-4.64-7.42ZM709.7,750.23l-4.64,7.42h9.27s-4.64-7.42-4.64-7.42ZM116.9,704.44l-4.59,7.35h9.18s-4.59-7.35-4.59-7.35ZM755.3,704.67l-4.59,7.35h9.18s-4.59-7.35-4.59-7.35ZM231.13,88.87l-4.54,7.27h9.09s-4.54-7.27-4.54-7.27ZM185.29,772.9l-4.5,7.2h9s-4.5-7.2-4.5-7.2ZM686.89,773.15l-4.5,7.2h8.99s-4.5-7.2-4.5-7.2ZM641.53,89.11l-4.54,7.27h9.08s-4.54-7.27-4.54-7.27ZM846.49,476.71l-4.54,7.27h9.09s-4.54-7.27-4.54-7.27ZM25.69,476.47l-4.54,7.27h9.08s-4.54-7.27-4.54-7.27ZM48.5,590.58l-4.4,7.04h8.8s-4.4-7.04-4.4-7.04ZM823.7,590.82l-4.4,7.04h8.8s-4.4-7.04-4.4-7.04ZM25.94,385.4l-4.36,6.98h8.72s-4.36-6.98-4.36-6.98ZM801.16,248.89l-4.33,6.94h8.67s-4.33-6.94-4.33-6.94ZM846.76,385.69l-4.33,6.94h8.67s-4.33-6.94-4.33-6.94ZM94.12,681.85l-4.33,6.94h8.67s-4.33-6.94-4.33-6.94ZM778.1,682.04l-4.36,6.98h8.72s-4.36-6.98-4.36-6.98ZM71.54,248.6l-4.36,6.98h8.72s-4.36-6.98-4.36-6.98ZM664.07,796.17l-4.23,6.77h8.46s-4.23-6.77-4.23-6.77ZM25.67,522.29l-4.23,6.77h8.46s-4.23-6.77-4.23-6.77ZM322.31,43.53l-4.23,6.77h8.46s-4.23-6.77-4.23-6.77ZM846.47,522.57l-4.23,6.77h8.46s-4.23-6.77-4.23-6.77ZM550.31,43.73l-4.23,6.77h8.46s-4.23-6.77-4.23-6.77ZM208.07,795.89l-4.23,6.77h8.46s-4.23-6.77-4.23-6.77ZM299.3,841.63l-4.09,6.55h8.19s-4.09-6.55-4.09-6.55ZM572.9,841.87l-4.09,6.55h8.18s-4.09-6.55-4.09-6.55ZM413.29,864.43l-4.09,6.55h8.18s-4.09-6.55-4.09-6.55ZM458.89,864.67l-4.09,6.55h8.19s-4.09-6.55-4.09-6.55ZM253.94,66.56l-3.93,6.29h7.86s-3.93-6.29-3.93-6.29ZM618.74,66.8l-3.93,6.29h7.86s-3.93-6.29-3.93-6.29ZM800.86,659.66l-3.9,6.24h7.8s-3.9-6.24-3.9-6.24ZM71.26,659.32l-3.91,6.25h7.81s-3.91-6.25-3.91-6.25ZM846.74,340.53l-3.76,6.02h7.52s-3.76-6.02-3.76-6.02ZM367.7,864.69l-3.76,6.02h7.52s-3.76-6.02-3.76-6.02ZM25.94,340.29l-3.76,6.02h7.52s-3.76-6.02-3.76-6.02ZM504.5,864.93l-3.76,6.02h7.52s-3.76-6.02-3.76-6.02ZM436.35,21.33l-3.78,6.06h7.57s-3.78-6.06-3.78-6.06ZM48.72,271.89l-3.78,6.05h7.56s-3.78-6.05-3.78-6.05ZM823.91,272.11l-3.77,6.04h7.54s-3.77-6.04-3.77-6.04ZM230.85,819.13l-3.64,5.83h7.28s-3.64-5.83-3.64-5.83ZM641.25,819.47l-3.64,5.83h7.28s-3.64-5.83-3.64-5.83ZM481.9,21.42l-3.57,5.72h7.15s-3.57-5.72-3.57-5.72ZM390.68,21.26l-3.6,5.76h7.2s-3.6-5.76-3.6-5.76ZM846.49,568.71l-3.52,5.64h7.05s-3.52-5.64-3.52-5.64ZM732.73,135.63l-3.4,5.44h6.8s-3.4-5.44-3.4-5.44ZM25.69,568.59l-3.4,5.44h6.8s-3.4-5.44-3.4-5.44ZM139.94,135.38l-3.4,5.44h6.8s-3.4-5.44-3.4-5.44ZM117.18,158.15l-3.37,5.39h6.74s-3.37-5.39-3.37-5.39ZM755.59,158.49l-3.37,5.39h6.73s-3.37-5.39-3.37-5.39ZM823.69,637.39l-3.2,5.12h6.4s-3.2-5.12-3.2-5.12ZM162.73,112.75l-3.2,5.12h6.4s-3.2-5.12-3.2-5.12ZM48.49,637.14l-3.2,5.12h6.4s-3.2-5.12-3.2-5.12ZM709.93,112.98l-3.2,5.12h6.4s-3.2-5.12-3.2-5.12ZM869.23,455.03l-3.17,5.07h6.33s-3.17-5.07-3.17-5.07ZM596.02,44.66l-3.16,5.06h6.32s-3.16-5.06-3.16-5.06ZM94.37,181.11l-3.17,5.07h6.33s-3.17-5.07-3.17-5.07ZM276.77,44.31l-3.17,5.07h6.33s-3.17-5.07-3.17-5.07ZM778.42,181.46l-3.16,5.06h6.32s-3.16-5.06-3.16-5.06ZM3.17,454.71l-3.17,5.07h6.33s-3.17-5.07-3.17-5.07ZM322.1,865.31l-2.99,4.79h5.99s-2.99-4.79-2.99-4.79ZM869.53,409.55l-2.99,4.79h5.98s-2.99-4.79-2.99-4.79ZM3.13,409.31l-3,4.8h5.99s-3-4.8-3-4.8ZM345.13,21.71l-2.99,4.79h5.98s-2.99-4.79-2.99-4.79ZM527.54,21.95l-2.99,4.79h5.99s-2.99-4.79-2.99-4.79ZM550.09,865.55l-2.99,4.79h5.98s-2.99-4.79-2.99-4.79ZM618.47,842.76l-2.99,4.79h5.99s-2.99-4.79-2.99-4.79ZM185.51,90.12l-2.99,4.79h5.99s-2.99-4.79-2.99-4.79ZM253.66,842.47l-3,4.8h6s-3-4.8-3-4.8ZM687.1,90.31l-3,4.8h6s-3-4.8-3-4.8ZM25.94,295.49l-2.77,4.43h5.54s-2.77-4.43-2.77-4.43ZM846.74,295.73l-2.77,4.43h5.53s-2.77-4.43-2.77-4.43ZM869.3,500.93l-2.77,4.43h5.54s-2.77-4.43-2.77-4.43ZM2.9,500.69l-2.77,4.43h5.53s-2.77-4.43-2.77-4.43ZM71.54,204.29l-2.77,4.43h5.54s-2.77-4.43-2.77-4.43ZM801.14,204.53l-2.77,4.43h5.53s-2.77-4.43-2.77-4.43ZM436.09,888.48l-2.52,4.04h5.04s-2.52-4.04-2.52-4.04ZM869.53,364.32l-2.52,4.04h5.04s-2.52-4.04-2.52-4.04ZM755.29,751.92l-2.52,4.04h5.05s-2.52-4.04-2.52-4.04ZM3.13,364.08l-2.52,4.04h5.05s-2.52-4.04-2.52-4.04ZM732.5,774.72l-2.52,4.04h5.04s-2.52-4.04-2.52-4.04ZM139.7,774.48l-2.52,4.04h5.04s-2.52-4.04-2.52-4.04ZM116.89,751.68l-2.52,4.04h5.04s-2.52-4.04-2.52-4.04ZM664.4,68.13l-2.34,3.75h4.69s-2.34-3.75-2.34-3.75ZM208.41,67.7l-2.4,3.84h4.79s-2.4-3.84-2.4-3.84ZM25.7,615.11l-2.25,3.6h4.5s-2.25-3.6-2.25-3.6ZM846.5,615.34l-2.25,3.6h4.5s-2.25-3.6-2.25-3.6ZM390.5,888.7l-2.25,3.6h4.5s-2.25-3.6-2.25-3.6ZM481.7,888.94l-2.25,3.6h4.49s-2.25-3.6-2.25-3.6ZM527.32,888.71l-2.25,3.6h4.49s-2.25-3.6-2.25-3.6ZM162.5,797.5l-2.25,3.6h4.5s-2.25-3.6-2.25-3.6ZM823.94,227.75l-2.25,3.6h4.5s-2.25-3.6-2.25-3.6ZM869.3,546.95l-2.25,3.61h4.51s-2.25-3.61-2.25-3.61ZM94.09,729.1l-2.25,3.6h4.49s-2.25-3.6-2.25-3.6ZM778.1,729.35l-2.25,3.61h4.51s-2.25-3.61-2.25-3.61ZM48.74,227.5l-2.25,3.6h4.49s-2.25-3.6-2.25-3.6ZM2.89,546.7l-2.25,3.6h4.49s-2.25-3.6-2.25-3.6ZM709.7,797.74l-2.25,3.6h4.5s-2.25-3.6-2.25-3.6ZM573.01,22.48l-2.19,3.5h4.37s-2.19-3.5-2.19-3.5ZM299.41,22.48l-2.17,3.47h4.34s-2.17-3.47-2.17-3.47ZM459.14,0l-1.94,3.1h3.87s-1.94-3.1-1.94-3.1ZM413.54,0l-1.94,3.1h3.87S413.54,0,413.54,0ZM800.89,706.8l-1.94,3.1h3.88s-1.94-3.1-1.94-3.1ZM276.5,866.16l-1.94,3.1h3.87s-1.94-3.1-1.94-3.1ZM595.69,866.4l-1.94,3.1h3.88s-1.94-3.1-1.94-3.1ZM71.3,706.56l-1.94,3.1h3.87s-1.94-3.1-1.94-3.1ZM185.42,820.56l-1.64,2.62h3.27s-1.64-2.62-1.64-2.62ZM686.96,820.76l-1.54,2.47h3.09s-1.54-2.47-1.54-2.47ZM344.95,888.71l-.87,1.39h1.74s-.87-1.39-.87-1.39Z"/></svg>